<svg width="1200" height="720" viewBox="0 0 1200 720" fill="none" xmlns="http://www.w3.org/2000/svg">
  <rect width="1200" height="720" rx="48" fill="url(#bg)"/>
  <circle cx="216" cy="146" r="108" fill="#FFF5EC" fill-opacity="0.14"/>
  <circle cx="982" cy="560" r="132" fill="#FFF5EC" fill-opacity="0.08"/>
  <path d="M280 454C280 279.474 421.474 138 596 138C770.526 138 912 279.474 912 454" stroke="#F1E1D3" stroke-width="18" stroke-linecap="round"/>
  <path d="M424 454C424 359.044 501.044 282 596 282C690.956 282 768 359.044 768 454" stroke="#D5B49B" stroke-width="18" stroke-linecap="round"/>
  <path d="M596 454L706 248" stroke="#7D563E" stroke-width="16" stroke-linecap="round"/>
  <circle cx="596" cy="454" r="30" fill="#7D563E"/>
  <path d="M820 514C876 452 954 424 1034 430" stroke="#B98E6B" stroke-width="14" stroke-linecap="round"/>
  <path d="M834 236C890 282 936 346 952 416" stroke="#B98E6B" stroke-width="14" stroke-linecap="round"/>
  <rect x="500" y="526" width="192" height="54" rx="27" fill="#F7EEE6"/>
  <defs>
    <linearGradient id="bg" x1="116" y1="60" x2="1046" y2="646" gradientUnits="userSpaceOnUse">
      <stop stop-color="#DFC0A7"/>
      <stop offset="1" stop-color="#875F45"/>
    </linearGradient>
  </defs>
</svg>
