<svg width="1200" height="720" viewBox="0 0 1200 720" fill="none" xmlns="http://www.w3.org/2000/svg">
  <rect width="1200" height="720" rx="48" fill="url(#bg)"/>
  <circle cx="232" cy="168" r="120" fill="#FFF6EF" fill-opacity="0.16"/>
  <circle cx="988" cy="112" r="94" fill="#FFF6EF" fill-opacity="0.11"/>
  <path d="M148 498H1052" stroke="#F2E2D4" stroke-width="12" stroke-linecap="round"/>
  <path d="M238 498V258" stroke="#F2E2D4" stroke-width="12" stroke-linecap="round"/>
  <rect x="298" y="294" width="130" height="52" rx="26" fill="#F8F1EA"/>
  <rect x="506" y="242" width="130" height="52" rx="26" fill="#F8F1EA"/>
  <rect x="714" y="330" width="130" height="52" rx="26" fill="#F8F1EA"/>
  <rect x="922" y="270" width="130" height="52" rx="26" fill="#F8F1EA"/>
  <path d="M364 498V346" stroke="#7D563E" stroke-width="10" stroke-linecap="round"/>
  <path d="M572 498V294" stroke="#7D563E" stroke-width="10" stroke-linecap="round"/>
  <path d="M780 498V382" stroke="#7D563E" stroke-width="10" stroke-linecap="round"/>
  <path d="M988 498V322" stroke="#7D563E" stroke-width="10" stroke-linecap="round"/>
  <path d="M286 196C408 172 520 240 620 196C717 154 810 191 908 158" stroke="#9B7455" stroke-width="18" stroke-linecap="round"/>
  <defs>
    <linearGradient id="bg" x1="144" y1="70" x2="1042" y2="642" gradientUnits="userSpaceOnUse">
      <stop stop-color="#DEBFA4"/>
      <stop offset="1" stop-color="#8C644A"/>
    </linearGradient>
  </defs>
</svg>
