<svg width="1200" height="720" viewBox="0 0 1200 720" fill="none" xmlns="http://www.w3.org/2000/svg">
  <rect width="1200" height="720" rx="48" fill="#B28C6A"/>
  <rect width="1200" height="720" rx="48" fill="url(#bg)"/>
  <circle cx="195" cy="144" r="118" fill="#E7D8C8" fill-opacity="0.22"/>
  <circle cx="1012" cy="130" r="144" fill="#FAF2E9" fill-opacity="0.12"/>
  <path d="M130 516C224 448 310 406 414 406C525 406 594 474 688 474C790 474 842 402 972 402C1036 402 1090 420 1138 444V618H130V516Z" fill="#5D4332" fill-opacity="0.18"/>
  <rect x="154" y="164" width="210" height="310" rx="28" fill="#F8F1EA" fill-opacity="0.9"/>
  <rect x="495" y="212" width="208" height="262" rx="28" fill="#F8F1EA" fill-opacity="0.78"/>
  <rect x="836" y="132" width="210" height="342" rx="28" fill="#F8F1EA" fill-opacity="0.88"/>
  <path d="M257 368C290.137 368 317 341.137 317 308C317 274.863 290.137 248 257 248C223.863 248 197 274.863 197 308C197 341.137 223.863 368 257 368Z" fill="#B28C6A"/>
  <path d="M597 389C635.108 389 666 358.108 666 320C666 281.892 635.108 251 597 251C558.892 251 528 281.892 528 320C528 358.108 558.892 389 597 389Z" stroke="#9C7555" stroke-width="22"/>
  <path d="M940 335C989.706 335 1030 294.706 1030 245C1030 195.294 989.706 155 940 155C890.294 155 850 195.294 850 245C850 294.706 890.294 335 940 335Z" fill="#B28C6A"/>
  <path d="M256 310L596 322L940 247" stroke="#6F4D3A" stroke-width="12" stroke-linecap="round"/>
  <circle cx="257" cy="309" r="18" fill="#6F4D3A"/>
  <circle cx="597" cy="322" r="18" fill="#6F4D3A"/>
  <circle cx="940" cy="247" r="18" fill="#6F4D3A"/>
  <defs>
    <linearGradient id="bg" x1="114" y1="72" x2="1042" y2="648" gradientUnits="userSpaceOnUse">
      <stop stop-color="#D8B89C"/>
      <stop offset="1" stop-color="#8A6348"/>
    </linearGradient>
  </defs>
</svg>
